<svg width="48" height="48" viewBox="0 0 48 48" fill="none" xmlns="http://www.w3.org/2000/svg">
<g clip-path="url(#clip0_562_5437)" filter="url(#filter0_i_562_5437)">
<path d="M23.9998 2.26627C29.7638 2.26627 35.2921 4.55669 39.3679 8.63248C43.4435 12.7082 45.7331 18.2358 45.7332 23.9997C45.7332 28.2981 44.4591 32.5008 42.071 36.0749C39.8321 39.4255 36.7084 42.083 33.0544 43.7575L32.3171 44.0788C28.346 45.7237 23.9762 46.1545 19.7605 45.3161C15.5447 44.4775 11.672 42.4072 8.63257 39.3678C5.78303 36.5183 3.78569 32.9364 2.8562 29.026L2.68433 28.2399C1.84578 24.0242 2.27585 19.6544 3.92065 15.6833L4.24292 14.945C5.91743 11.2913 8.57501 8.16813 11.9255 5.92935L12.6033 5.49478C16.0254 3.38713 19.9701 2.26633 23.9998 2.26627ZM17.5417 13.2047C17.1615 13.144 16.7723 13.2352 16.4587 13.4586L16.4578 13.4596C14.3749 14.9359 12.7858 17.0003 11.8894 19.3825L11.7195 19.8629C10.8629 22.4479 10.8544 25.2389 11.696 27.8288L11.863 28.3102C12.7456 30.6976 14.3239 32.7711 16.3982 34.2594C18.6106 35.8467 21.2722 36.6851 23.9949 36.653H24.0056L24.5144 36.651C27.0509 36.5869 29.5149 35.7677 31.5896 34.2936L31.9988 33.9919C34.0071 32.4411 35.5108 30.324 36.3132 27.9088C37.1691 25.3325 37.1825 22.5496 36.3503 19.9655C35.5701 17.5429 34.0847 15.4126 32.0906 13.8434L31.6853 13.5368C31.3744 13.3111 30.9871 13.2164 30.6072 13.2731C30.2273 13.3299 29.8845 13.5339 29.6531 13.8405L29.6482 13.8463C29.4155 14.1435 29.3103 14.5214 29.3552 14.8961C29.3998 15.2677 29.5885 15.6069 29.8806 15.8405C31.16 16.7437 32.2049 17.9397 32.9285 19.3288C33.6539 20.7216 34.0351 22.2681 34.0398 23.8385V23.8405C34.0367 25.544 33.5972 27.2183 32.7634 28.7038C31.9297 30.1893 30.7296 31.4368 29.2771 32.3268C27.8247 33.2167 26.1685 33.7195 24.4666 33.7878C22.7644 33.856 21.0726 33.4873 19.5535 32.7165C18.0344 31.9456 16.7378 30.7984 15.7878 29.3844C14.838 27.9706 14.2662 26.3369 14.1267 24.6393C13.9873 22.9416 14.2854 21.2362 14.9919 19.6862C15.6985 18.1362 16.7899 16.7922 18.1628 15.7838L18.1667 15.7819L18.2771 15.694C18.383 15.6011 18.4751 15.4929 18.5496 15.3727C18.6486 15.2128 18.7149 15.0349 18.7449 14.8493C18.7749 14.6634 18.7681 14.4728 18.7244 14.2897C18.6808 14.1073 18.6011 13.9356 18.491 13.7838L18.4001 13.6725C18.1767 13.4242 17.8744 13.2579 17.5417 13.2047ZM24.0798 10.2135C23.7298 10.2136 23.3937 10.3528 23.1462 10.6003C22.899 10.8477 22.7606 11.1831 22.7605 11.5329V24.5329L22.7664 24.6618C22.779 24.7901 22.8103 24.9163 22.8601 25.0358C22.9264 25.1949 23.0239 25.3392 23.1462 25.4606C23.2687 25.5821 23.4143 25.6787 23.574 25.7438C23.7336 25.8088 23.9046 25.8418 24.0769 25.8405L24.0828 25.8395L24.0798 26.2067L24.0828 25.8405C24.2552 25.8418 24.427 25.8089 24.5867 25.7438C24.7463 25.6787 24.891 25.582 25.0134 25.4606C25.1358 25.3392 25.2333 25.195 25.2996 25.0358C25.3659 24.8766 25.4002 24.7053 25.4001 24.5329V11.5329C25.4 11.183 25.2608 10.8477 25.0134 10.6003C24.7659 10.3527 24.4299 10.2135 24.0798 10.2135Z" fill="#606C80" stroke="#606C80" stroke-width="0.8"/>
</g>
<defs>
<filter id="filter0_i_562_5437" x="0" y="0" width="52" height="52" filterUnits="userSpaceOnUse" color-interpolation-filters="sRGB">
<feFlood flood-opacity="0" result="BackgroundImageFix"/>
<feBlend mode="normal" in="SourceGraphic" in2="BackgroundImageFix" result="shape"/>
<feColorMatrix in="SourceAlpha" type="matrix" values="0 0 0 0 0 0 0 0 0 0 0 0 0 0 0 0 0 0 127 0" result="hardAlpha"/>
<feOffset dx="4" dy="4"/>
<feGaussianBlur stdDeviation="10"/>
<feComposite in2="hardAlpha" operator="arithmetic" k2="-1" k3="1"/>
<feColorMatrix type="matrix" values="0 0 0 0 1 0 0 0 0 1 0 0 0 0 1 0 0 0 0.2 0"/>
<feBlend mode="normal" in2="shape" result="effect1_innerShadow_562_5437"/>
</filter>
<clipPath id="clip0_562_5437">
<rect width="48" height="48" fill="white"/>
</clipPath>
</defs>
</svg>
