<svg width="25" height="24" viewBox="0 0 25 24" fill="none" xmlns="http://www.w3.org/2000/svg">
<path d="M12.5 2C6.98 2 2.5 6.48 2.5 12C2.5 17.52 6.98 22 12.5 22C18.02 22 22.5 17.52 22.5 12C22.5 6.48 18.02 2 12.5 2ZM10 14.67V9.33C10 8.54 10.88 8.06 11.54 8.49L15.69 11.16C15.8303 11.2507 15.9457 11.375 16.0256 11.5218C16.1055 11.6685 16.1474 11.8329 16.1474 12C16.1474 12.1671 16.1055 12.3315 16.0256 12.4782C15.9457 12.625 15.8303 12.7493 15.69 12.84L11.54 15.51C10.88 15.94 10 15.46 10 14.67Z" fill="#405474"/>
</svg>
