<svg width="24" height="24" viewBox="0 0 24 24" fill="none" xmlns="http://www.w3.org/2000/svg">
<path d="M5.588 11.4338L19.388 4.99692M19.388 4.99692L16.808 4M19.388 4.99692L18.428 7.64308M20 20H17V11.3846C17 11.2214 17.0632 11.0649 17.1757 10.9495C17.2883 10.8341 17.4409 10.7692 17.6 10.7692H19.4C19.5591 10.7692 19.7117 10.8341 19.8243 10.9495C19.9368 11.0649 20 11.2214 20 11.3846V20ZM14 20H11V13.2308C11 13.0676 11.0632 12.911 11.1757 12.7956C11.2883 12.6802 11.4409 12.6154 11.6 12.6154H13.4C13.5591 12.6154 13.7117 12.6802 13.8243 12.7956C13.9368 12.911 14 13.0676 14 13.2308V20ZM8 20H5V15.0769C5 14.9137 5.06321 14.7572 5.17574 14.6418C5.28826 14.5264 5.44087 14.4615 5.6 14.4615H7.4C7.55913 14.4615 7.71174 14.5264 7.82426 14.6418C7.93679 14.7572 8 14.9137 8 15.0769V20Z" stroke="#BEC1C1" stroke-width="1.5" stroke-linecap="round" stroke-linejoin="round"/>
</svg>
