<svg width="48" height="48" viewBox="0 0 48 48" fill="none" xmlns="http://www.w3.org/2000/svg">
<g clip-path="url(#clip0_562_5527)" filter="url(#filter0_i_562_5527)">
<path d="M23.9996 2.2663C29.7637 2.2663 35.292 4.55672 39.3678 8.63251C43.4434 12.7082 45.7329 18.2358 45.733 23.9997C45.733 28.2981 44.459 32.5009 42.0709 36.0749C39.832 39.4256 36.7083 42.083 33.0543 43.7575L32.317 44.0788C28.3459 45.7237 23.9761 46.1546 19.7604 45.3161C15.5446 44.4775 11.6719 42.4072 8.63245 39.3679C5.78291 36.5183 3.78557 32.9365 2.85608 29.0261L2.6842 28.2399C1.84566 24.0242 2.27572 19.6544 3.92053 15.6833L4.2428 14.945C5.91731 11.2913 8.57489 8.16816 11.9254 5.92938L12.6031 5.49481C16.0253 3.38716 19.97 2.26636 23.9996 2.2663ZM17.5416 13.2048C17.1614 13.144 16.7722 13.2352 16.4586 13.4587L16.4576 13.4597C14.3748 14.936 12.7856 17.0003 11.8893 19.3825L11.7194 19.863C10.8628 22.4479 10.8543 25.239 11.6959 27.8288L11.8629 28.3102C12.7455 30.6976 14.3237 32.7711 16.3981 34.2595C18.6104 35.8467 21.2721 36.6851 23.9948 36.653H24.0055L24.5143 36.6511C27.0508 36.587 29.5148 35.7677 31.5895 34.2936L31.9987 33.9919C34.0069 32.4412 35.5107 30.324 36.3131 27.9089C37.169 25.3325 37.1824 22.5496 36.3502 19.9655C35.57 17.5429 34.0846 15.4126 32.0905 13.8434L31.6852 13.5368C31.3743 13.3112 30.987 13.2164 30.6071 13.2731C30.2271 13.3299 29.8844 13.5339 29.653 13.8405L29.6481 13.8464C29.4154 14.1436 29.3102 14.5214 29.3551 14.8962C29.3997 15.2677 29.5884 15.607 29.8805 15.8405C31.1599 16.7437 32.2048 17.9397 32.9283 19.3288C33.6538 20.7217 34.035 22.2681 34.0397 23.8386V23.8405C34.0366 25.544 33.5971 27.2183 32.7633 28.7038C31.9295 30.1893 30.7295 31.4369 29.277 32.3268C27.8246 33.2167 26.1684 33.7195 24.4664 33.7878C22.7643 33.856 21.0725 33.4873 19.5533 32.7165C18.0343 31.9456 16.7377 30.7984 15.7877 29.3845C14.8379 27.9706 14.266 26.3369 14.1266 24.6393C13.9872 22.9416 14.2853 21.2362 14.9918 19.6862C15.6984 18.1362 16.7898 16.7922 18.1627 15.7839L18.1666 15.7819L18.277 15.694C18.3828 15.6012 18.475 15.4929 18.5494 15.3727C18.6484 15.2129 18.7147 15.0349 18.7448 14.8493C18.7748 14.6634 18.768 14.4728 18.7242 14.2897C18.6806 14.1074 18.601 13.9356 18.4908 13.7839L18.4 13.6725C18.1766 13.4243 17.8743 13.2579 17.5416 13.2048ZM24.0797 10.2136C23.7297 10.2136 23.3936 10.3528 23.1461 10.6003C22.8989 10.8477 22.7605 11.1832 22.7604 11.5329V24.5329L22.7662 24.6618C22.7789 24.7902 22.8102 24.9163 22.86 25.0358C22.9262 25.1949 23.0238 25.3392 23.1461 25.4606C23.2685 25.5821 23.4141 25.6788 23.5739 25.7438C23.7335 25.8088 23.9044 25.8419 24.0768 25.8405L24.0826 25.8395L24.0797 26.2067L24.0826 25.8405C24.2551 25.8419 24.4268 25.8089 24.5865 25.7438C24.7462 25.6788 24.8909 25.5821 25.0133 25.4606C25.1357 25.3392 25.2331 25.195 25.2994 25.0358C25.3657 24.8766 25.4 24.7054 25.4 24.5329V11.5329C25.3999 11.183 25.2607 10.8477 25.0133 10.6003C24.7658 10.3527 24.4298 10.2136 24.0797 10.2136Z" fill="#30BEDD" stroke="#30BEDD" stroke-width="0.8"/>
</g>
<defs>
<filter id="filter0_i_562_5527" x="0" y="0" width="52" height="52" filterUnits="userSpaceOnUse" color-interpolation-filters="sRGB">
<feFlood flood-opacity="0" result="BackgroundImageFix"/>
<feBlend mode="normal" in="SourceGraphic" in2="BackgroundImageFix" result="shape"/>
<feColorMatrix in="SourceAlpha" type="matrix" values="0 0 0 0 0 0 0 0 0 0 0 0 0 0 0 0 0 0 127 0" result="hardAlpha"/>
<feOffset dx="4" dy="4"/>
<feGaussianBlur stdDeviation="10"/>
<feComposite in2="hardAlpha" operator="arithmetic" k2="-1" k3="1"/>
<feColorMatrix type="matrix" values="0 0 0 0 1 0 0 0 0 1 0 0 0 0 1 0 0 0 0.2 0"/>
<feBlend mode="normal" in2="shape" result="effect1_innerShadow_562_5527"/>
</filter>
<clipPath id="clip0_562_5527">
<rect width="48" height="48" fill="white"/>
</clipPath>
</defs>
</svg>
