<svg width="24" height="24" viewBox="0 0 24 24" fill="none" xmlns="http://www.w3.org/2000/svg">
<path d="M12 22C17.52 22 22 17.52 22 12C22 6.48 17.52 2 12 2C6.48 2 2 6.48 2 12C2 17.52 6.48 22 12 22ZM14.5 9.33L14.5 14.67C14.5 15.46 13.62 15.94 12.96 15.51L8.81 12.84C8.66965 12.7493 8.55426 12.625 8.47435 12.4782C8.39445 12.3315 8.35259 12.1671 8.35259 12C8.35259 11.8329 8.39445 11.6685 8.47435 11.5218C8.55426 11.375 8.66965 11.2507 8.81 11.16L12.96 8.49C13.62 8.06 14.5 8.54 14.5 9.33Z" fill="#405474"/>
</svg>
