<svg width="45" height="56" viewBox="0 0 45 56" fill="none" xmlns="http://www.w3.org/2000/svg">
<path d="M23.0001 8C34.0458 8 43.0001 16.9543 43.0001 28C43.0001 39.0457 34.0458 48 23.0001 48C11.9544 48 3.00012 39.0457 3.00012 28C3.00012 16.9543 11.9544 8 23.0001 8ZM23.0001 20C18.5818 20 15.0001 23.5817 15.0001 28C15.0001 32.4183 18.5818 36 23.0001 36C27.4184 36 31.0001 32.4183 31.0001 28C31.0001 23.5817 27.4184 20 23.0001 20Z" fill="#EFF1F4"/>
<path d="M19.8185 20.6582C17.8793 21.4997 16.3407 23.0874 15.5607 25.0586L4.40149 20.6465C5.36716 18.2041 6.80418 15.9758 8.63098 14.0889C10.4578 12.202 12.6382 10.6927 15.048 9.64844L19.8185 20.6582Z" fill="#4A57BF"/>
<path d="M15.1378 29.4766C15.2736 30.2042 15.5069 30.8971 15.8253 31.541L5.06555 36.8525C4.25937 35.2193 3.68022 33.4834 3.34387 31.6934L15.1378 29.4766Z" fill="#FE8423"/>
<path d="M17.0372 33.332C17.7181 34.0929 18.5426 34.7215 19.4679 35.1777L14.171 45.9453C11.8673 44.8119 9.80335 43.2458 8.09192 41.332L17.0372 33.332Z" fill="#FE8423"/>
<path d="M32.4532 45.625C30.2172 46.8243 27.7733 47.5874 25.2521 47.873L23.9005 35.9482C24.9332 35.8326 25.9058 35.5204 26.7814 35.0498L32.4532 45.625Z" fill="#FE8423"/>
<path d="M43.0001 28C43.0001 31.7462 41.9484 35.4173 39.964 38.5947L29.7843 32.2373C30.5535 31.0084 31.0001 29.5567 31.0001 28H43.0001Z" fill="#FE8423"/>
<path d="M37.1427 13.8574C38.7278 15.4425 40.035 17.2832 41.0099 19.3018L30.2052 24.5195C29.8126 23.7083 29.2876 22.973 28.6573 22.3428L37.1427 13.8574Z" fill="#4A57BF"/>
<path d="M23.0001 8C26.056 8 29.0715 8.7001 31.8146 10.0469L26.5255 20.8184C25.4618 20.2952 24.2656 20 23.0001 20V8Z" fill="#4A57BF"/>
</svg>
