<svg width="45" height="56" viewBox="0 0 45 56" fill="none" xmlns="http://www.w3.org/2000/svg">
<path d="M23 8C34.0457 8 43 16.9543 43 28C43 39.0457 34.0457 48 23 48C11.9543 48 3 39.0457 3 28C3 16.9543 11.9543 8 23 8ZM23 20C18.5817 20 15 23.5817 15 28C15 32.4183 18.5817 36 23 36C27.4183 36 31 32.4183 31 28C31 23.5817 27.4183 20 23 20Z" fill="#EFF1F4"/>
<path d="M18.2754 21.5439C17.2946 22.2629 16.4846 23.2004 15.915 24.2842L5.28711 18.7119C6.70515 16.0076 8.72439 13.6638 11.1885 11.8604L18.2754 21.5439Z" fill="#4A57BF"/>
<path d="M15.0273 28.6455C15.1098 29.6785 15.3875 30.6559 15.8252 31.541L5.06543 36.8525C3.94757 34.5878 3.2693 32.1316 3.06543 29.6143L15.0273 28.6455Z" fill="#FE8423"/>
<path d="M17.3428 33.6572C18.7905 35.1049 20.7909 36 23 36V48C17.6957 48 12.6081 45.8933 8.85742 42.1426L17.3428 33.6572Z" fill="#FE8423"/>
<path d="M41.9961 34.2578C41.344 36.2372 40.3863 38.1024 39.1582 39.7861L29.4619 32.7129C29.9486 32.0467 30.3342 31.303 30.5977 30.5029L41.9961 34.2578Z" fill="#FE8423"/>
<path d="M37.1426 13.8574C40.8933 17.6081 43 22.6957 43 28H31C31 25.7909 30.1049 23.7905 28.6572 22.3428L37.1426 13.8574Z" fill="#4A57BF"/>
<path d="M23 8C26.0559 8 29.0713 8.7001 31.8145 10.0469L26.5254 20.8184C25.4617 20.2952 24.2655 20 23 20V8Z" fill="#4A57BF"/>
</svg>
