<svg width="45" height="56" viewBox="0 0 45 56" fill="none" xmlns="http://www.w3.org/2000/svg">
<path d="M23 8C34.0457 8 43 16.9543 43 28C43 39.0457 34.0457 48 23 48C11.9543 48 3 39.0457 3 28C3 16.9543 11.9543 8 23 8ZM23 20C18.5817 20 15 23.5817 15 28C15 32.4183 18.5817 36 23 36C27.4183 36 31 32.4183 31 28C31 23.5817 27.4183 20 23 20Z" fill="#EFF1F4"/>
<path d="M20.4121 20.4297C19.2441 20.8289 18.1968 21.4887 17.3428 22.3428L8.85742 13.8574C11.0166 11.6983 13.6419 10.0628 16.5312 9.0752L20.4121 20.4297Z" fill="#4A57BF"/>
<path d="M15.1582 29.5908C15.2966 30.2769 15.5234 30.9308 15.8252 31.541L5.06543 36.8525C4.3023 35.3065 3.74238 33.6682 3.39941 31.9785L15.1582 29.5908Z" fill="#FE8423"/>
<path d="M17.0371 33.332C17.718 34.0929 18.5425 34.7215 19.4678 35.1777L14.1709 45.9453C11.8672 44.8119 9.80323 43.2458 8.0918 41.332L17.0371 33.332Z" fill="#FE8423"/>
<path d="M43 28C43 31.6475 42.0022 35.2253 40.1152 38.3467C38.2282 41.4681 35.5236 44.014 32.2939 45.709L26.7168 35.083C29.2626 33.7443 31 31.0761 31 28H43Z" fill="#FE8423"/>
<path d="M23 8C24.9261 8 26.842 8.27835 28.6885 8.82617L25.2764 20.3301C24.5547 20.1162 23.791 20 23 20V8Z" fill="#4A57BF"/>
</svg>
