<svg width="45" height="56" viewBox="0 0 45 56" fill="none" xmlns="http://www.w3.org/2000/svg">
<path d="M22.9999 8C34.0456 8 42.9999 16.9543 42.9999 28C42.9999 39.0457 34.0456 48 22.9999 48C11.9542 48 2.99994 39.0457 2.99994 28C2.99994 16.9543 11.9542 8 22.9999 8ZM22.9999 20C18.5817 20 14.9999 23.5817 14.9999 28C14.9999 32.4183 18.5817 36 22.9999 36C27.4182 36 30.9999 32.4183 30.9999 28C30.9999 23.5817 27.4182 20 22.9999 20Z" fill="#EFF1F4"/>
<path d="M20.5439 20.3848C18.0212 21.1978 16.0474 23.2294 15.3124 25.7861L3.78021 22.4668C4.68716 19.3167 6.3547 16.4373 8.63568 14.083C10.9167 11.7287 13.7415 9.97096 16.8613 8.96484L20.5439 20.3848Z" fill="#4A57BF"/>
<path d="M15.4267 30.5791C16.1128 32.5944 17.5797 34.2468 19.4677 35.1777L14.1708 45.9453C11.8143 44.7859 9.70902 43.1741 7.97552 41.2012C6.24199 39.2281 4.91386 36.9325 4.06732 34.4463L15.4267 30.5791Z" fill="#FE8423"/>
<path d="M32.4531 45.625C27.7787 48.132 22.2996 48.6799 17.2216 47.1475L20.6874 35.6592C21.4197 35.88 22.1957 36 22.9999 36C24.368 36 25.655 35.6551 26.7812 35.0498L32.4531 45.625Z" fill="#FE8423"/>
<path d="M41.996 34.2578C40.8239 37.8159 38.6757 40.9732 35.7968 43.3701L28.1181 34.1465C29.2555 33.1983 30.1241 31.941 30.5976 30.5029L41.996 34.2578Z" fill="#FE8423"/>
<path d="M37.1425 13.8574C40.8932 17.6081 42.9999 22.6957 42.9999 28H30.9999C30.9999 25.7909 30.1049 23.7905 28.6572 22.3428L37.1425 13.8574Z" fill="#4A57BF"/>
<path d="M22.9999 8C26.0558 8 29.0713 8.7001 31.8144 10.0469L26.5253 20.8184C25.4616 20.2952 24.2654 20 22.9999 20V8Z" fill="#4A57BF"/>
</svg>
