<svg width="45" height="56" viewBox="0 0 45 56" fill="none" xmlns="http://www.w3.org/2000/svg">
<path d="M23 8C34.0457 8 43 16.9543 43 28C43 39.0457 34.0457 48 23 48C11.9543 48 3 39.0457 3 28C3 16.9543 11.9543 8 23 8ZM23 20C18.5817 20 15 23.5817 15 28C15 32.4183 18.5817 36 23 36C27.4183 36 31 32.4183 31 28C31 23.5817 27.4183 20 23 20Z" fill="#EFF1F4"/>
<path d="M20.5439 20.3848C18.0212 21.1978 16.0475 23.2294 15.3125 25.7861L3.78027 22.4668C4.68722 19.3167 6.35476 16.4373 8.63574 14.083C10.9167 11.7287 13.7415 9.97096 16.8613 8.96484L20.5439 20.3848Z" fill="#4A57BF"/>
<path d="M15.4268 30.5791C16.1129 32.5944 17.5797 34.2468 19.4678 35.1777L14.1709 45.9453C11.8144 44.7859 9.70908 43.1741 7.97559 41.2012C6.24205 39.2281 4.91392 36.9325 4.06738 34.4463L15.4268 30.5791Z" fill="#FE8423"/>
<path d="M32.4531 45.625C27.7788 48.132 22.2997 48.6799 17.2217 47.1475L20.6875 35.6592C21.4197 35.88 22.1958 36 23 36C24.3681 36 25.6551 35.6551 26.7812 35.0498L32.4531 45.625Z" fill="#FE8423"/>
<path d="M41.9961 34.2578C40.824 37.8159 38.6758 40.9732 35.7969 43.3701L28.1182 34.1465C29.2556 33.1983 30.1242 31.941 30.5977 30.5029L41.9961 34.2578Z" fill="#FE8423"/>
<path d="M37.1426 13.8574C40.8933 17.6081 43 22.6957 43 28H31C31 25.7909 30.1049 23.7905 28.6572 22.3428L37.1426 13.8574Z" fill="#4A57BF"/>
<path d="M23 8C26.0559 8 29.0713 8.7001 31.8145 10.0469L26.5254 20.8184C25.4617 20.2952 24.2655 20 23 20V8Z" fill="#4A57BF"/>
</svg>
