<svg width="45" height="56" viewBox="0 0 45 56" fill="none" xmlns="http://www.w3.org/2000/svg">
<path d="M23 8C34.0457 8 43 16.9543 43 28C43 39.0457 34.0457 48 23 48C11.9543 48 3 39.0457 3 28C3 16.9543 11.9543 8 23 8ZM23 20C18.5817 20 15 23.5817 15 28C15 32.4183 18.5817 36 23 36C27.4183 36 31 32.4183 31 28C31 23.5817 27.4183 20 23 20Z" fill="#EFF1F4"/>
<path d="M17.2168 22.4736C16.3831 23.3458 15.744 24.4055 15.3711 25.584L3.93262 21.9629C4.85431 19.0519 6.43055 16.3903 8.54004 14.1826L17.2168 22.4736Z" fill="#4A57BF"/>
<path d="M15.7881 31.4668C16.1814 32.2835 16.709 33.0234 17.3428 33.6572L8.85742 42.1426C7.26361 40.5488 5.95116 38.6965 4.97461 36.665L15.7881 31.4668Z" fill="#FE8423"/>
<path d="M32.4531 45.625C27.7788 48.132 22.2997 48.6799 17.2217 47.1475L20.6875 35.6592C21.4197 35.88 22.1958 36 23 36C24.3681 36 25.6551 35.6551 26.7812 35.0498L32.4531 45.625Z" fill="#FE8423"/>
<path d="M39.7705 38.8975C37.7293 42.0387 34.8465 44.544 31.4512 46.127L26.3809 35.25C27.7423 34.6141 28.8937 33.6067 29.707 32.3574L39.7705 38.8975Z" fill="#FE8423"/>
<path d="M37.1426 13.8574C39.727 16.4419 41.5531 19.6856 42.4238 23.2354L30.7695 26.0938C30.4166 24.6504 29.6743 23.3599 28.6572 22.3428L37.1426 13.8574Z" fill="#4A57BF"/>
<path d="M23 8C26.0559 8 29.0713 8.7001 31.8145 10.0469L26.5254 20.8184C25.4617 20.2952 24.2655 20 23 20V8Z" fill="#4A57BF"/>
</svg>
